<svg xmlns="http://www.w3.org/2000/svg" id="shape-social-facebook" viewBox="0 0 96.12 96.12" width="100%" height="100%"><title>FB</title><g data-name="Calque 2"><g data-name="Capa 1"><circle fill="#21579f" cx="48.06" cy="48.06" r="48.06"></circle><path fill="#fff" d="M60.67 22.85h-6.54c-7.35 0-12.1 4.87-12.1 12.41V41h-6.58a1 1 0 0 0-1 1v8.3a1 1 0 0 0 1 1H42v20.95a1 1 0 0 0 1 1h8.58a1 1 0 0 0 1-1V51.33h7.69a1 1 0 0 0 1-1V42a1 1 0 0 0-1-1h-7.6v-4.87c0-2.33.56-3.52 3.59-3.52h4.41a1 1 0 0 0 1-1v-7.7a1 1 0 0 0-1-1.06z"></path></g></g></svg>
