<svg  xmlns="http://www.w3.org/2000/svg" id="shape-social-twitter" viewBox="0 0 96.2 96.2" width="100%" height="100%"><title>Twitter</title><g data-name="Calque 2"><g data-name="Capa 1"><circle fill="#2daae1" cx="48.1" cy="48.1" r="48.1"></circle><path fill="#fff" d="M78 29.5a24 24 0 0 1-7.1 1.9 12.23 12.23 0 0 0 5.4-6.8 26.32 26.32 0 0 1-7.8 3 12.14 12.14 0 0 0-9-3.9A12.29 12.29 0 0 0 47.2 36a12.65 12.65 0 0 0 .3 2.8A34.78 34.78 0 0 1 22.2 26a11.77 11.77 0 0 0-1.7 6.2A12.2 12.2 0 0 0 26 42.4a13.33 13.33 0 0 1-5.6-1.5v.2a12.33 12.33 0 0 0 9.9 12.1 11.24 11.24 0 0 1-3.2.4 16.41 16.41 0 0 1-2.3-.2 12.29 12.29 0 0 0 11.5 8.5A24.67 24.67 0 0 1 21 67.2a26.42 26.42 0 0 1-2.9-.2 34.53 34.53 0 0 0 18.8 5.5c22.6 0 35-18.7 35-35v-1.6a24.73 24.73 0 0 0 6.1-6.4z"></path></g></g></svg>
