<?xml version="1.0" encoding="UTF-8" standalone="no"?>
<!-- Created with Inkscape (http://www.inkscape.org/) -->

<svg
   xmlns:dc="http://purl.org/dc/elements/1.1/"
   xmlns:cc="http://creativecommons.org/ns#"
   xmlns:rdf="http://www.w3.org/1999/02/22-rdf-syntax-ns#"
   xmlns:svg="http://www.w3.org/2000/svg"
   xmlns="http://www.w3.org/2000/svg"
   xmlns:sodipodi="http://sodipodi.sourceforge.net/DTD/sodipodi-0.dtd"
   xmlns:inkscape="http://www.inkscape.org/namespaces/inkscape"
   width="210mm"
   height="297mm"
   viewBox="0 0 210 297"
   version="1.1"
   id="svg8"
   inkscape:version="0.92.2 (5c3e80d, 2017-08-06)"
   sodipodi:docname="wilson.svg">
  <defs
     id="defs2" />
  <sodipodi:namedview
     id="base"
     pagecolor="#ffffff"
     bordercolor="#666666"
     borderopacity="1.0"
     inkscape:pageopacity="0.0"
     inkscape:pageshadow="2"
     inkscape:zoom="0.7"
     inkscape:cx="258.09239"
     inkscape:cy="770.98499"
     inkscape:document-units="mm"
     inkscape:current-layer="layer2"
     showgrid="false"
     inkscape:window-width="1920"
     inkscape:window-height="1001"
     inkscape:window-x="2391"
     inkscape:window-y="-9"
     inkscape:window-maximized="1" />
  <metadata
     id="metadata5">
    <rdf:RDF>
      <cc:Work
         rdf:about="">
        <dc:format>image/svg+xml</dc:format>
        <dc:type
           rdf:resource="http://purl.org/dc/dcmitype/StillImage" />
        <dc:title></dc:title>
      </cc:Work>
    </rdf:RDF>
  </metadata>
  <g
     inkscape:groupmode="layer"
     id="layer2"
     inkscape:label="shapes"
     style="display:inline;opacity:1">
    <path
       style="fill:#999999;fill-opacity:1;stroke:none;stroke-width:0.26458332px;stroke-linecap:butt;stroke-linejoin:miter;stroke-opacity:1"
       d="m 84.824664,16.834717 4.242906,-1.236122 5.879928,-0.668173 8.018082,-0.634765 11.59282,-0.634766 6.64833,0.233861 6.61492,0.567948 5.41221,0.968852 4.20949,1.971113 1.03567,1.603617 0.30068,3.507912 0.80181,0.668174 4.00904,0.167044 2.77292,0.935443 2.50566,1.804069 1.90429,3.80859 1.03567,5.044713 -0.0668,4.510174 -1.10248,4.443355 -2.07134,3.507914 0.86862,4.209494 1.00226,5.178346 0.83522,4.10927 0.83522,7.316502 0.33409,7.817636 0.0334,3.674954 0.13364,0.935444 4.14268,2.305199 5.31198,4.810852 3.97563,6.314242 2.20498,6.715151 2.80633,9.28761 1.30293,7.04924 0.63477,7.14946 -0.0668,7.04923 -1.97111,7.01582 -4.14268,6.98242 -3.37428,6.28083 -6.08038,5.51244 -4.47676,3.0736 -0.66817,1.5368 0.23386,4.77744 0.53453,7.65059 0.20046,5.31198 0.73499,6.58152 0.0668,4.51017 -0.83522,5.14494 -0.93544,6.41446 -0.86863,8.419 -1.33635,6.11379 -0.36749,9.08716 -0.80181,9.58829 -1.20272,7.88445 -0.0334,6.58152 0.80181,7.75081 1.40317,5.31199 1.97111,6.08038 -0.43431,6.41446 -1.57021,5.3454 -3.0736,3.97563 -5.94675,2.03793 -9.75533,0.23386 -8.21854,-0.93543 -4.57699,-1.93771 -4.51018,-4.00904 -1.60361,-5.44563 -1.06908,2.07134 -2.70611,5.81311 -3.34086,3.107 -5.545846,2.10476 -8.786487,-0.0334 -9.421249,-1.1693 -6.180608,-2.87314 -1.603619,-3.50792 -0.668173,-6.18062 -0.03341,-6.64832 1.169305,-6.84878 0.734991,-4.24291 -0.167045,-5.84651 0.367496,-6.28084 v -5.47903 l -0.367496,-7.28309 0.06682,-9.18739 -0.334086,-6.34765 -0.902034,-6.04697 -1.135896,-6.71515 -1.503391,-6.84878 -1.369756,-1.06908 -4.376539,-1.40316 -1.00226,-1.93771 -0.768401,-3.87541 -0.53454,-11.45918 -0.434311,-2.7061 -1.804069,-3.70837 -1.80407,-5.94674 1.637025,-5.31199 v -2.87314 l -1.302938,-1.46999 -2.138156,-1.46998 -3.741774,-2.43883 -2.03793,-4.30972 -2.806329,-5.94675 -3.173825,-9.5883 0.03341,-5.14493 1.035672,-5.21176 1.703842,-2.87315 1.035669,-4.97789 1.336347,-3.94223 1.403165,-4.77744 3.040192,-6.748555 3.608139,-6.214015 3.140416,-2.906556 4.476763,-3.741775 2.171565,-2.53906 0.56795,-5.178346 0.467722,-9.721929 1.102484,-9.755338 0.367496,-5.545844 0.367496,-2.639285 -3.407685,-3.875408 -1.302938,-4.643807 0.835215,-6.949009 2.639288,-5.211757 5.011303,-4.142677 4.443354,-0.534539 1.236123,-0.701582 0.634765,-3.240643 1.336349,-1.870887 z"
       id="path1019"
       inkscape:connector-curvature="0" />
    <path
       style="fill:#ffffff;fill-opacity:1;stroke:none;stroke-width:0.26458332px;stroke-linecap:butt;stroke-linejoin:miter;stroke-opacity:1"
       d="m 90.572544,72.48214 -3.96875,-4.677455 -1.937128,-5.291666 0.283482,2.598586 0.708705,2.220611 -4.346726,-3.543527 -1.606399,-3.827008 -0.283482,-8.409971 3.118305,0.236236 -0.283483,-13.890625 -0.330729,-13.040179 0.566962,-4.252232 1.27567,-1.700893 1.181177,-0.755952 2.69308,-1.086682 9.307663,-1.275669 15.213539,-0.850447 14.17411,0.850447 5.33891,1.039434 2.83483,1.086681 1.13392,0.897694 0.33073,0.755952 0.18899,1.984375 0.37798,10.488839 -0.14174,11.150298 -0.14175,6.709077 3.35454,0.755952 0.47247,0.992187 0.0472,3.543527 -0.42522,4.535715 -0.99219,2.456845 -1.79539,1.700892 -1.22842,0.708708 -1.55915,0.944938 -1.03943,1.700895 -1.22843,2.504091 -1.03943,1.700892 c -15.07109,8.453802 -27.78781,5.360021 -40.254416,1.039434 z"
       id="path972"
       inkscape:connector-curvature="0"
       sodipodi:nodetypes="cccccccccccccccccccccccccccccccccccccc" />
    <path
       style="fill:#000000;stroke:none;stroke-width:0.26458332px;stroke-linecap:butt;stroke-linejoin:miter;stroke-opacity:1"
       d="m 86.728961,31.868628 c 6.983896,-9.430745 33.502259,-10.583304 43.297659,-1.069079 7.85665,10.322372 4.10196,35.518734 -4.14267,43.965837 -5.16931,3.196737 -24.60131,3.901948 -32.473252,-0.668174 C 90.146161,72.091347 78.437831,53.541558 86.728961,31.868628 Z"
       id="path836"
       inkscape:connector-curvature="0"
       sodipodi:nodetypes="ccccc" />
    <path
       style="fill:#ffff00;fill-opacity:1;stroke:none;stroke-width:0.26458332px;stroke-linecap:butt;stroke-linejoin:miter;stroke-opacity:1"
       d="m 85.45943,24.986437 -0.133635,-3.741773 5.679478,-0.935443 0.06682,3.541321 z"
       id="path855"
       inkscape:connector-curvature="0"
       sodipodi:nodetypes="ccccc" />
    <path
       style="fill:#ffff00;fill-opacity:1;stroke:none;stroke-width:0.26458332px;stroke-linecap:butt;stroke-linejoin:miter;stroke-opacity:1"
       d="m 126.15122,23.783725 6.41446,1.403165 0.46773,-3.674956 -6.88219,-1.670435 z"
       id="path857"
       inkscape:connector-curvature="0" />
    <path
       style="fill:#ffffff;fill-opacity:1;stroke:none;stroke-width:0.26458332px;stroke-linecap:butt;stroke-linejoin:miter;stroke-opacity:1"
       d="m 109.84778,160.22482 3.14041,0.53453 4.07586,-1.06907 2.40543,-3.80859 3.67495,-5.21176 3.87541,-6.88219 4.47677,-6.48128 4.14267,-7.34992 3.40769,-8.15172 0.46772,-4.00904 -2.00452,-8.21854 -1.67043,-11.89349 -1.93771,1.069075 -47.507157,-0.267268 -2.539059,-0.400902 -3.006784,-0.801809 2.138157,3.942224 -0.73499,5.87993 -1.069078,6.68174 -1.603618,6.5481 -0.267269,1.40316 1.670434,3.87541 3.920235,5.97476 3.401785,5.14992 1.937129,2.59859 3.496281,3.49628 5.244417,5.76414 3.968747,3.54352 3.30729,3.54353 2.5041,3.59077 z"
       id="path956"
       inkscape:connector-curvature="0"
       sodipodi:nodetypes="ccccccccccccccccccccccccccccccc" />
    <path
       style="display:inline;opacity:1;fill:#ffffff;fill-opacity:1;stroke:none;stroke-width:0.26458332px;stroke-linecap:butt;stroke-linejoin:miter;stroke-opacity:1"
       d="m 68.621451,85.12208 2.739512,2.004523 4.276312,4.075858 3.140417,3.474506 3.207234,1.804069 3.674956,0.734992 49.979398,-0.868628 3.00678,-2.271791 5.87994,-5.011304 3.80859,-4.075858 2.67269,-3.608139 -2.40542,-2.204974 -5.81312,-3.207234 -5.61266,-2.539061 -1.36975,-0.100227 -2.3052,1.236123 c -12.58908,7.259456 -27.30817,9.791357 -47.173074,0.902033 l -1.536798,-0.434313 -1.469983,0.334089 -5.512435,2.572467 -5.545844,3.57473 -2.23838,2.10475 z"
       id="path958"
       inkscape:connector-curvature="0"
       sodipodi:nodetypes="ccccccccccccccccccccccc" />
    <path
       style="fill:#000000;fill-opacity:1;stroke:none;stroke-width:0.26458332px;stroke-linecap:butt;stroke-linejoin:miter;stroke-opacity:1"
       d="m 91.07209,92.872897 11.55941,-1.336349 10.7576,-0.534538 11.69304,0.267269 3.67495,0.267269 1.60362,0.668176 0.80181,0.868624 0.4009,1.469983 0.53454,8.753079 0.40091,17.7066 0.0668,7.88445 -0.13363,3.14042 -0.73499,2.00452 -1.00226,0.66818 -36.749562,0.80181 -1.937705,-0.13364 -1.202711,-0.86862 -0.267269,-0.93545 -1.870888,-36.281837 0.200451,-1.670434 0.80181,-1.804069 z"
       id="path859"
       inkscape:connector-curvature="0" />
    <path
       style="fill:#ffffff;fill-opacity:1;stroke:none;stroke-width:0.26458332px;stroke-linecap:butt;stroke-linejoin:miter;stroke-opacity:1"
       d="m 113.58955,97.683747 14.49937,0.601359 0.26727,11.091684 -9.08717,0.73499 -5.54584,-0.4009 z"
       id="path861"
       inkscape:connector-curvature="0" />
    <path
       style="fill:#ffff00;fill-opacity:1;stroke:none;stroke-width:0.26458332px;stroke-linecap:butt;stroke-linejoin:miter;stroke-opacity:1"
       d="m 97.352926,97.550114 8.886714,-0.06682 1.46998,0.200451 0.73499,1.002263 0.4009,3.274052 0.0668,6.01357 -0.20045,1.33634 -0.93545,0.53454 -13.89801,0.60136 -0.601356,-9.82216 0.400905,-1.336346 0.734991,-0.935445 1.336347,-0.46772 z"
       id="path863"
       inkscape:connector-curvature="0" />
    <path
       style="fill:#ffff00;fill-opacity:1;stroke:none;stroke-width:0.26458332px;stroke-linecap:butt;stroke-linejoin:miter;stroke-opacity:1"
       d="m 104.63602,119.3994 8.55262,0.13363 1.00227,0.13364 0.53453,0.66817 0.0668,1.67044 v 2.47224 l -0.4009,0.60135 -1.06908,0.33409 -18.040695,0.20045 -0.334087,-0.33408 -0.400905,-4.54359 0.133636,-0.66817 0.801809,-0.33409 1.269529,-0.20045 z"
       id="path865"
       inkscape:connector-curvature="0" />
    <ellipse
       style="fill:#ffffff;fill-rule:evenodd;stroke:none;stroke-width:0.31051499;stroke-opacity:1"
       id="path867"
       cx="124.21352"
       cy="121.83823"
       rx="6.1471992"
       ry="6.0469732" />
    <path
       style="fill:#ffff00;stroke:none;stroke-width:0.26458332px;stroke-linecap:butt;stroke-linejoin:miter;stroke-opacity:1"
       d="m 84.791258,74.230848 c 0.07389,-1.578041 1.603616,-1.724156 1.603616,-2.939965 17.408286,8.745084 33.457466,9.695077 47.306706,-1.670434 l 1.5368,3.140417 c -14.51008,9.978525 -31.30439,10.5566 -50.447122,1.469982 z"
       id="path869"
       inkscape:connector-curvature="0"
       sodipodi:nodetypes="ccccc" />
    <path
       style="fill:#ffff00;fill-opacity:1;stroke:none;stroke-width:0.26458332px;stroke-linecap:butt;stroke-linejoin:miter;stroke-opacity:1"
       d="m 159.76036,101.42552 5.21175,-2.204972 -0.86862,-4.075861 -1.80407,-3.474503 -2.27179,-2.80633 -4.2095,2.539061 z"
       id="path873"
       inkscape:connector-curvature="0" />
    <path
       style="fill:#000000;stroke:none;stroke-width:0.26458332px;stroke-linecap:butt;stroke-linejoin:miter;stroke-opacity:1"
       d="m 162.90078,111.44813 5.47902,-1.40317 -1.26953,-5.34539 -1.91105,-4.991332 -5.29167,1.972562 1.7571,3.45309 1.06908,2.60587 z"
       id="path875"
       inkscape:connector-curvature="0" />
    <path
       style="display:inline;opacity:1;fill:#ffffff;fill-opacity:1;stroke:none;stroke-width:0.26458332px;stroke-linecap:butt;stroke-linejoin:miter;stroke-opacity:1"
       d="m 77.296131,257.50148 0.37797,6.80357 1.559152,4.48848 3.260047,3.1183 4.204984,1.46465 5.716889,0.47247 6.425595,-1.08667 5.055432,-2.12614 2.78757,-3.77973 c 1.11645,-1.83578 2.02301,-3.58898 3.26006,-6.99257 l -0.189,8.59896 -1.18117,6.00036 -1.6064,4.58296 -2.45684,3.30729 -5.669651,1.7009 -8.315476,0.66146 -6.3311,-0.66146 -5.291667,-1.51191 -2.645833,-2.17337 -0.944941,-2.9293 -0.472472,-4.81921 v -5.85861 l 1.13393,-5.10269 z"
       id="path883"
       inkscape:connector-curvature="0"
       sodipodi:nodetypes="cccccccccccccccccccccccc" />
    <path
       style="display:inline;opacity:1;fill:#ffffff;fill-opacity:1;stroke:none;stroke-width:0.26458332px;stroke-linecap:butt;stroke-linejoin:miter;stroke-opacity:1"
       d="m 77.909067,254.83823 31.136903,-2.93997 1.67043,-27.92966 -1.40316,1.5368 -2.73952,1.5368 -6.949005,2.40542 -5.679477,1.00226 -5.34539,-0.26726 -4.409948,-1.33635 -3.875408,-1.5368 -2.338607,-1.40317 -1.002263,-0.60135 v 8.4858 l 0.668174,6.1472 -0.334087,7.2831 z"
       id="path887"
       inkscape:connector-curvature="0" />
    <path
       style="display:inline;opacity:1;fill:#ffffff;fill-opacity:1;stroke:none;stroke-width:0.26458332px;stroke-linecap:butt;stroke-linejoin:miter;stroke-opacity:1"
       d="m 77.107258,222.96634 3.674957,2.20497 5.144936,1.5368 6.481286,0.86863 7.617183,-0.66818 5.21176,-1.87088 5.27857,-3.94223 0.46772,-20.88043 -2.83974,0.86863 -9.38784,2.07133 -8.285355,0.50114 -6.247426,-0.23387 -5.278573,-0.50113 -4.10927,-0.50113 1.135896,5.47903 0.668173,6.88219 z"
       id="path889"
       inkscape:connector-curvature="0" />
    <path
       style="display:inline;opacity:1;fill:#ffffff;fill-opacity:1;stroke:none;stroke-width:0.26458332px;stroke-linecap:butt;stroke-linejoin:miter;stroke-opacity:1"
       d="m 113.25112,221.02678 6.66183,2.74033 8.12648,2.03162 7.65402,0.18899 6.94531,-1.5119 3.49628,-3.77977 2.07887,-5.57514 0.52158,-13.83681 -3.40769,0.66817 -7.55036,1.03567 -9.28762,-0.0668 -7.48354,-0.90203 -7.61718,-1.67044 z"
       id="path891"
       inkscape:connector-curvature="0" />
    <path
       style="display:inline;opacity:1;fill:#ffffff;fill-opacity:1;stroke:none;stroke-width:0.26458332px;stroke-linecap:butt;stroke-linejoin:miter;stroke-opacity:1"
       d="m 113.10937,223.29464 3.40179,2.03162 5.66964,2.03162 9.92188,1.18118 7.22879,-0.61421 4.91369,-2.69308 2.64583,-3.02381 -0.23623,8.22098 -1.08668,7.79576 -0.18899,9.4494 -0.61421,6.37835 -4.77195,-1.18117 -7.41778,-0.0236 -9.96913,0.16536 -6.35471,3.96876 -3.59088,-3.94074 -0.59048,-1.35092 z"
       id="path893"
       inkscape:connector-curvature="0"
       sodipodi:nodetypes="cccccccccccccccccc" />
    <path
       style="display:inline;opacity:1;fill:#ffffff;fill-opacity:1;stroke:none;stroke-width:0.26458332px;stroke-linecap:butt;stroke-linejoin:miter;stroke-opacity:1"
       d="m 114.3378,256.55654 -1.6064,-2.22061 0.37797,6.47285 2.17337,13.60713 2.78757,5.81139 5.00819,2.78757 10.15811,0.99218 7.51227,-0.85042 3.54353,-1.22843 3.59077,-3.77976 0.85045,-3.87427 -0.0472,-7.37052 -2.45684,-8.40998 -1.27567,-3.26004 1.03943,5.48065 0.14174,4.70109 -0.51971,2.45683 -1.48829,1.79539 -3.33091,2.40959 -5.03181,1.15757 h -4.60658 l -4.34672,-1.08667 -4.01601,-1.96076 -2.85844,-2.92933 -2.10249,-3.59077 -1.85916,-5.37526 z"
       id="path895"
       inkscape:connector-curvature="0"
       sodipodi:nodetypes="ccccccccccccccccccccccccccc" />
    <path
       style="display:inline;opacity:1;fill:#ffffff;fill-opacity:1;stroke:none;stroke-width:0.26458332px;stroke-linecap:butt;stroke-linejoin:miter;stroke-opacity:1"
       d="m 117.21987,258.91889 2.78757,5.90587 2.50409,3.54354 3.49628,2.07886 3.9215,1.03944 4.29948,0.18899 4.11049,-0.47246 3.49628,-1.65365 2.78758,-2.92931 0.61421,-2.83483 -0.42522,-5.81139 -0.99219,-2.88206 -4.48847,-0.85045 -7.70126,-0.23624 -9.07143,0.42523 -3.82701,1.88988 z"
       id="path897"
       inkscape:connector-curvature="0"
       sodipodi:nodetypes="ccccccccccccccccc" />
    <path
       style="opacity:1;fill:#000000;fill-opacity:1;stroke:none;stroke-width:0.26458332px;stroke-linecap:butt;stroke-linejoin:miter;stroke-opacity:1"
       d="m 74.300928,201.58478 -1.603618,-6.94901 c 27.35624,6.76463 29.95157,-0.47022 38.88772,-1.73725 19.29653,5.98141 29.44972,4.8841 37.81863,2.40542 l -0.66817,5.21176 c -12.42803,3.42905 -24.85607,1.9731 -37.2841,-1.33635 -21.89999,5.82441 -27.152992,2.86291 -37.150462,2.40543 z"
       id="path871"
       inkscape:connector-curvature="0"
       sodipodi:nodetypes="ccccccc" />
    <path
       style="display:inline;opacity:1;fill:#ffffff;fill-opacity:1;stroke:none;stroke-width:0.26458332px;stroke-linecap:butt;stroke-linejoin:miter;stroke-opacity:1"
       d="m 78.61065,256.97638 0.167042,5.54585 0.701582,2.80633 1.135896,2.33859 1.937705,2.5725 2.171565,0.90201 2.271789,0.96885 3.374279,0.46773 2.973374,-0.13364 4.142677,-0.66818 3.641551,-1.10246 3.00678,-1.97112 1.90429,-2.83975 1.73291,-3.12993 1.31482,-3.72695 0.0463,-6.06163 -4.33249,0.4122 -12.793147,0.81328 -6.38106,0.66817 -5.011303,0.70158 z"
       id="path885"
       inkscape:connector-curvature="0"
       sodipodi:nodetypes="ccccccccccccccccccccc" />
    <path
       style="display:inline;opacity:1;fill:#000000;fill-opacity:1;stroke:none;stroke-width:0.26458332px;stroke-linecap:butt;stroke-linejoin:miter;stroke-opacity:1"
       d="m 52.2846,110.37905 1.703843,-0.43431 0.868627,-2.63929 3.975634,-8.819893 3.006783,-4.944486 0.835216,-1.069078 0.03341,-1.069078 -0.601356,-0.868627 -2.472243,2.204974 0.167043,1.369756 -2.772921,4.744034 -1.369756,2.939968 -1.336347,3.24064 -0.567949,1.57021 -1.135896,0.46772 -0.334087,1.83748 z"
       id="path881"
       inkscape:connector-curvature="0" />
    <path
       style="fill:#ffffff;fill-opacity:1;stroke:none;stroke-width:0.26458332px;stroke-linecap:butt;stroke-linejoin:miter;stroke-opacity:1"
       d="m 112.96763,192.25335 0.0473,-6.99256 2.69308,-2.22062 2.45685,-3.0238 1.37015,-2.17337 1.60641,-1.32291 5.19717,2.3151 5.66964,0.8032 9.07143,-1.22842 5.38616,-3.30729 3.9215,-10.29985 -0.33072,14.50483 0.7087,4.67746 0.0472,4.44122 -0.75595,3.26004 -0.37798,2.4096 -2.17336,0.99219 -7.65402,1.27567 -8.55171,-0.0473 -8.31548,-1.37016 -7.32329,-1.79539 z"
       id="path910"
       inkscape:connector-curvature="0"
       sodipodi:nodetypes="cccccccccccccccccccccc" />
    <path
       style="fill:#ffffff;fill-opacity:1;stroke:none;stroke-width:0.26458332px;stroke-linecap:butt;stroke-linejoin:miter;stroke-opacity:1"
       d="m 110.03832,192.15885 0.0472,-6.75632 -2.74032,-1.74814 -3.16555,-1.70089 -1.7009,-2.36236 -9.307659,-0.47247 -7.748514,-1.6064 -3.838596,-2.45399 -3.340867,-6.1472 -3.140416,-4.27631 0.534537,5.07811 0.868627,5.01131 -0.467722,7.61718 -0.601356,6.21402 -0.734991,5.14494 2.873147,1.20271 8.753076,1.26953 h 8.552624 l 8.15172,-1.73725 4.6104,-1.46999 z"
       id="path912"
       inkscape:connector-curvature="0" />
    <path
       style="fill:#ffffff;fill-opacity:1;stroke:none;stroke-width:0.26458332px;stroke-linecap:butt;stroke-linejoin:miter;stroke-opacity:1"
       d="m 111.65184,183.34363 1.26953,-0.13363 1.60362,-1.60362 3.74177,-4.14268 2.73952,-3.34087 -1.37682,-2.72905 -0.63783,-3.09468 -0.14174,-1.6064 -1.18118,-2.45684 -0.51972,-1.58277 -7.9375,-0.0236 -0.49609,0.0236 -0.73233,1.2048 -1.2048,1.46465 -0.51972,1.13393 -0.0472,1.01581 0.23623,1.18118 0.11812,2.45684 -0.28348,1.77177 -0.8977,0.96856 -1.39378,1.06306 -1.03944,0.21261 -0.61421,0.54334 0.44885,1.25205 1.48828,2.14974 2.78758,2.52771 2.6222,1.46466 z"
       id="path914"
       inkscape:connector-curvature="0" />
    <path
       style="fill:#ffffff;fill-opacity:1;stroke:none;stroke-width:0.26458332px;stroke-linecap:butt;stroke-linejoin:miter;stroke-opacity:1"
       d="m 73.565937,193.53328 1.135896,-3.37428 0.367496,-4.57699 0.601355,-6.18061 0.334087,-5.17834 -1.00226,-5.04471 -0.300678,-3.47451 -0.567949,-2.3052 -0.801807,-1.73725 -2.305201,-2.07134 -2.605878,-0.96885 -4.142677,-2.60588 -1.102487,3.34087 -0.53454,3.14042 -0.434311,3.00678 0.133633,1.9377 0.868627,1.5034 1.035669,1.87088 0.601356,2.47224 0.200454,2.3052 0.400902,3.842 0.30068,5.94675 0.300678,3.40769 0.434313,1.83748 0.734992,1.1693 0.968851,0.73499 1.369756,0.56795 1.937705,0.36749 z"
       id="path918"
       inkscape:connector-curvature="0" />
    <path
       style="fill:#ffffff;fill-opacity:1;stroke:none;stroke-width:0.26458332px;stroke-linecap:butt;stroke-linejoin:miter;stroke-opacity:1"
       d="m 77.7686,165.22805 7.276041,-4.48847 6.283854,-5.90588 3.02381,-2.4096 2.55134,-1.84263 h 1.748139 l 1.748146,0.85045 3.40178,2.83482 3.54353,4.67745 1.27567,2.64584 -0.36617,0.75595 -0.96856,1.24023 -1.39379,1.63003 -0.6024,1.3111 0.59059,1.84264 0.16536,1.88988 0.0473,1.77176 -0.70871,1.13393 -1.03943,1.01581 -0.8032,0.42522 -1.48828,0.18899 -1.46466,1.70089 -2.055242,0.56697 -1.393788,-0.0709 -1.181176,-0.42523 -1.01581,0.77958 -1.299294,0.33073 -2.504091,-0.18899 -0.992188,-0.54334 -1.110305,0.42522 -3.071056,-0.66145 -2.527718,-1.6064 -1.700892,-2.1025 z"
       id="path920"
       inkscape:connector-curvature="0" />
    <path
       style="fill:#ffffff;fill-opacity:1;stroke:none;stroke-width:0.26458332px;stroke-linecap:butt;stroke-linejoin:miter;stroke-opacity:1"
       d="m 77.274303,164.13363 3.441094,-2.07133 4.309721,-2.87315 4.81085,-4.64381 3.474505,-2.87315 3.107008,-1.70384 0.935445,-0.63477 0.06682,-1.10248 -0.902034,-1.23612 -5.412208,-5.77971 -3.207234,-1.43657 -1.570209,-0.23386 -3.073599,0.4009 -2.605878,1.40317 -3.073599,2.3052 -2.672696,2.27179 -2.138156,2.40542 -1.469983,2.47225 -1.302938,1.9377 -0.100227,1.97111 -0.100226,1.43658 0.434313,1.10248 1.971114,2.07134 2.438834,2.47225 1.469983,1.67043 z"
       id="path922"
       inkscape:connector-curvature="0" />
    <path
       style="fill:#ffffff;fill-opacity:1;stroke:none;stroke-width:0.26458332px;stroke-linecap:butt;stroke-linejoin:miter;stroke-opacity:1"
       d="m 59.534286,118.53077 6.013564,7.684 4.209495,4.74404 2.138156,1.80406 2.806332,-1.13589 2.472243,-1.20272 2.873147,-0.8018 1.269529,-0.23386 -1.202711,-2.60588 -2.238383,-4.84426 -2.271792,-0.83522 -6.11379,-1.73725 -7.015826,-0.96886 z"
       id="path924"
       inkscape:connector-curvature="0"
       sodipodi:nodetypes="cccccccccccccc" />
    <path
       style="fill:#ffffff;fill-opacity:1;stroke:none;stroke-width:0.26458332px;stroke-linecap:butt;stroke-linejoin:miter;stroke-opacity:1"
       d="m 69.323034,134.29967 -7.784227,-9.55488 -3.875408,-5.31198 -0.668173,-0.66818 h -2.271792 l -4.409945,-0.0668 -1.069078,1.40316 -0.902036,2.20497 -0.7684,4.00904 0.501131,5.07813 1.503392,4.57699 2.071338,4.91108 2.438834,4.6438 1.670436,3.17383 2.23838,2.43883 2.57247,1.43658 0.484425,0.0752 -0.676526,-1.42823 -0.267269,-0.73499 0.141989,-1.60361 -0.0084,-1.3447 0.501129,-2.59753 1.77066,-2.28014 2.196624,-2.73116 1.81242,-1.92935 2.99843,-2.38873 z"
       id="path926"
       inkscape:connector-curvature="0" />
    <path
       style="fill:#ffffff;fill-opacity:1;stroke:none;stroke-width:0.26458332px;stroke-linecap:butt;stroke-linejoin:miter;stroke-opacity:1"
       d="m 50.848027,115.12309 0.133635,-2.60588 0.89557,-1.69411 2.220611,-0.0236 0.921316,-1.37016 2.929316,-7.63039 2.456844,-4.582964 2.315104,-3.425409 1.322917,-1.984375 -0.73233,-1.252046 -0.118115,-1.110305 1.990801,-1.938807 2.417298,-1.550642 1.515957,1.692092 2.649888,2.222984 1.097515,1.433234 -5.044712,6.715146 -2.939965,4.209502 -1.536801,3.94222 -3.54132,7.48355 -0.734992,1.60362 -1.536798,0.66817 -4.810852,-0.53454 z"
       id="path928"
       inkscape:connector-curvature="0"
       sodipodi:nodetypes="cccccccccccccccccccccccc" />
    <path
       style="fill:#ffffff;fill-opacity:1;stroke:none;stroke-width:0.26458332px;stroke-linecap:butt;stroke-linejoin:miter;stroke-opacity:1"
       d="m 60.117495,115.54375 1.079967,-2.27359 1.727178,-3.49223 1.592561,-3.7251 1.388055,-3.17464 3.836794,-5.927128 4.420548,-5.251422 2.70385,3.318347 2.542942,1.54908 1.595633,3.105736 0.637833,1.039437 0.47247,2.14974 -0.932207,6.11391 -1.135896,6.61492 -0.935445,2.80633 -1.403164,2.13815 -1.239306,-0.52264 -3.56715,-1.63002 -4.559339,-1.18118 -6.165736,-1.37016 z"
       id="path932"
       inkscape:connector-curvature="0"
       sodipodi:nodetypes="ccccccccccccccccccccc" />
    <path
       style="display:inline;opacity:1;fill:#ffff00;fill-opacity:1;stroke:none;stroke-width:0.26458332px;stroke-linecap:butt;stroke-linejoin:miter;stroke-opacity:1"
       d="m 82.020832,130.50149 -2.976562,0.37797 -4.866444,2.78758 -7.559524,4.96094 -3.071056,3.40178 -2.456844,3.16555 -0.566965,2.83482 -0.09449,2.74033 1.27567,2.50409 1.889879,1.79539 5.905879,3.63802 -0.330729,-3.30729 0.141742,-2.92932 1.511903,-2.55134 2.645834,-3.9215 4.960937,-4.25223 4.346726,-2.31511 3.071058,-0.80319 1.181174,-1.18118 -0.14174,-1.65365 -3.63802,-4.53571 z"
       id="path879"
       inkscape:connector-curvature="0" />
    <path
       style="display:inline;opacity:1;fill:#ffff00;fill-opacity:1;stroke:none;stroke-width:0.26458332px;stroke-linecap:butt;stroke-linejoin:miter;stroke-opacity:1"
       d="m 133.50113,135.30193 3.80859,-6.48128 3.14041,-0.53454 4.54359,1.20271 6.41447,2.6727 3.94222,2.00452 3.60814,3.34087 2.53906,4.00904 1.13589,2.73951 -0.13363,2.6727 -1.5368,2.47224 -4.34313,4.40995 -3.0736,2.27179 h -0.66817 l 2.07134,-3.67496 -0.33409,-2.67269 -1.1359,-3.0736 -2.07133,-2.47224 -2.87315,-2.6727 -3.0736,-1.87089 -4.81085,-1.9377 -3.67496,-1.5368 z"
       id="path877"
       inkscape:connector-curvature="0" />
    <path
       style="fill:none;stroke:#000000;stroke-width:0.26458332px;stroke-linecap:butt;stroke-linejoin:miter;stroke-opacity:1"
       d="m 90.147369,176.94528 -2.58319,-1.98723 -2.405425,-2.77292"
       id="path936"
       inkscape:connector-curvature="0" />
    <path
       style="fill:none;stroke:#000000;stroke-width:0.26458332px;stroke-linecap:butt;stroke-linejoin:miter;stroke-opacity:1"
       d="m 95.958754,176.5673 -1.746247,-3.48014 -2.138156,-3.60814"
       id="path938"
       inkscape:connector-curvature="0" />
    <path
       style="fill:none;stroke:#000000;stroke-width:0.26458332px;stroke-linecap:butt;stroke-linejoin:miter;stroke-opacity:1"
       d="m 102.05362,174.79557 -1.99459,-4.18065 -1.436575,-2.70611"
       id="path940"
       inkscape:connector-curvature="0" />
    <path
       style="fill:none;stroke:#000000;stroke-width:0.26458332px;stroke-linecap:butt;stroke-linejoin:miter;stroke-opacity:1"
       d="m 105.89239,165.21624 -0.9891,-2.41895 -0.86863,-2.13816"
       id="path942"
       inkscape:connector-curvature="0" />
    <path
       style="fill:#ffffff;fill-opacity:1;stroke:none;stroke-width:0.26458332px;stroke-linecap:butt;stroke-linejoin:miter;stroke-opacity:1"
       d="m 124.38055,151.50515 -2.60587,2.60588 -3.34087,5.11153 -0.90204,2.23838 0.23387,1.46998 0.56794,1.46998 0.7684,0.86863 0.13364,0.86862 0.18123,2.65705 0.44885,1.92532 0.88588,2.17336 1.004,1.8072 1.4056,1.15755 2.55134,0.81501 0.92131,-0.0827 1.11031,0.69689 2.30329,0.61421 1.55915,0.0354 1.18118,-0.22443 2.07887,0.37798 h 1.65364 l 1.38198,-0.34254 0.68508,-0.57878 0.85045,-0.66145 1.22842,0.23623 1.94894,-0.53153 1.87807,-1.24023 1.34654,-1.59459 0.59059,-1.63002 0.68508,-2.69308 1.14574,-5.38616 -2.74033,-2.22061 -3.9215,-1.98438 -5.48065,-2.64583 -6.56734,-2.55134 z"
       id="path944"
       inkscape:connector-curvature="0" />
    <path
       style="fill:none;stroke:#000000;stroke-width:0.26458332px;stroke-linecap:butt;stroke-linejoin:miter;stroke-opacity:1"
       d="m 119.10198,165.26953 0.14951,-2.30934 0.56696,-1.93713"
       id="path946"
       inkscape:connector-curvature="0" />
    <path
       style="fill:none;stroke:#000000;stroke-width:0.26458332px;stroke-linecap:butt;stroke-linejoin:miter;stroke-opacity:1"
       d="m 125.71252,176.67364 -0.98038,-1.61821 -0.51971,-2.88207 0.37797,-4.39397 0.47247,-1.74814"
       id="path948"
       inkscape:connector-curvature="0" />
    <path
       style="fill:none;stroke:#000000;stroke-width:0.26458332px;stroke-linecap:butt;stroke-linejoin:miter;stroke-opacity:1"
       d="m 132.78776,177.71301 -0.82682,-1.14568 -0.51972,-3.1183 0.61421,-4.06324 0.51972,-1.08669"
       id="path950"
       inkscape:connector-curvature="0" />
    <path
       style="fill:none;stroke:#000000;stroke-width:0.26458332px;stroke-linecap:butt;stroke-linejoin:miter;stroke-opacity:1"
       d="m 139.43778,176.50822 -1.28748,-1.40554 0.23623,-1.37017 0.85045,-3.26004 0.18899,-0.85045"
       id="path952"
       inkscape:connector-curvature="0" />
    <path
       style="fill:#ffffff;fill-opacity:1;stroke:none;stroke-width:0.26458332px;stroke-linecap:butt;stroke-linejoin:miter;stroke-opacity:1"
       d="m 124.51419,150.66993 3.00678,0.7684 4.07586,0.80181 6.04697,2.87315 6.1138,3.60814 3.17382,2.00452 1.60362,1.26953 1.30294,-2.03793 1.70384,-2.97338 2.27179,-3.57473 0.70158,-1.97111 -0.46772,-2.10475 -1.60361,-3.37427 -3.0402,-2.83974 -4.6104,-3.0736 -6.5481,-2.47225 -3.17382,-0.93544 -1.93771,0.7684 -2.63928,2.53906 -1.67044,2.53906 -1.20271,1.80407 -1.60362,2.70611 z"
       id="path954"
       inkscape:connector-curvature="0" />
    <path
       style="fill:#ffffff;fill-opacity:1;stroke:none;stroke-width:0.26458332px;stroke-linecap:butt;stroke-linejoin:miter;stroke-opacity:1"
       d="m 136.68564,97.192334 2.03162,-1.322917 1.29929,-1.08668 1.93713,-1.700893 1.03944,-0.897694 1.01581,-0.07087 0.75595,0.354354 1.22842,1.252045 1.34654,2.598587 1.01581,3.260045 1.98438,6.071239 0.8032,2.85845 0.28348,3.28366 0.11812,1.39379 -0.0236,0.59059 -3.59077,0.87407 -2.19699,0.66146 -2.8112,1.72451 -1.9135,1.32292 -0.21261,-1.13393 -0.87407,-3.63802 -1.01581,-4.7247 -1.03944,-5.97675 -0.51971,-2.929314 z"
       id="path960"
       inkscape:connector-curvature="0" />
    <path
       style="fill:#ffffff;fill-opacity:1;stroke:none;stroke-width:0.26458332px;stroke-linecap:butt;stroke-linejoin:miter;stroke-opacity:1"
       d="m 153.45833,113.25632 2.43322,-0.11811 h 3.75614 l 4.96094,0.56696 2.36235,0.85045 1.32292,1.39378 1.22842,1.18118 0.51972,0.68508 -0.37798,-2.90569 -0.89769,-3.00019 -0.77958,-1.25204 -1.41741,0.0945 -2.66946,0.8032 -1.65364,0.18899 -0.54334,-0.66146 -1.22842,-4.3231 -2.07887,-6.21299 -2.008,-4.653828 -1.72452,-4.039621 v -1.441035 l 1.27567,-1.370163 2.24423,-1.511906 0.0472,-0.944938 -0.68508,-0.755954 -2.19699,-1.795386 -1.06306,-0.259858 -1.18117,0.87407 -2.43322,3.118302 -2.33873,2.267857 -1.67727,0.803199 -0.21261,0.425225 0.35435,0.614212 1.2048,1.96075 1.32292,3.496281 1.29929,4.157733 1.46466,4.8192 0.87407,3.66164 z"
       id="path962"
       inkscape:connector-curvature="0" />
    <path
       style="fill:#ffffff;fill-opacity:1;stroke:none;stroke-width:0.26458332px;stroke-linecap:butt;stroke-linejoin:miter;stroke-opacity:1"
       d="m 137.97789,127.41748 1.97112,-4.07586 1.03566,-2.7061 1.16931,-1.00226 3.842,-1.63703 4.74403,-1.46998 4.47677,-0.66817 2.90655,-0.10023 3.90882,0.13364 1.10249,0.60135 0.60135,2.93997 -0.13363,3.00678 -0.90204,3.8754 -1.60361,4.47677 -2.00453,2.60588 -1.70384,1.20271 -5.04471,-3.17382 -4.94449,-1.9043 -4.77744,-1.50339 -2.60588,-0.50113 z"
       id="path964"
       inkscape:connector-curvature="0" />
    <path
       style="fill:#ffffff;fill-opacity:1;stroke:none;stroke-width:0.26458332px;stroke-linecap:butt;stroke-linejoin:miter;stroke-opacity:1"
       d="m 159.76036,136.73851 1.77066,2.40542 2.00452,3.54132 -0.0668,2.50566 -0.30068,0.86862 3.64155,-5.57925 2.07134,-4.64381 0.93544,-4.07586 0.46773,-5.84652 0.13363,-4.37654 -0.13363,-1.57021 -3.10701,-2.60587 -2.00452,-1.00226 -0.56795,-0.16705 0.4009,1.10249 0.70159,2.63929 -0.26727,3.24064 -0.7684,3.4411 -1.06908,3.14041 -1.26953,2.97338 -2.07134,2.60587 -0.63477,0.7684 0.10023,0.50113 z"
       id="path966"
       inkscape:connector-curvature="0" />
    <path
       style="fill:#ffffff;fill-opacity:1;stroke:none;stroke-width:0.26458332px;stroke-linecap:butt;stroke-linejoin:miter;stroke-opacity:1"
       d="m 71.294145,80.444863 3.741775,-2.672694 0.801809,-11.158503 0.534538,-3.741774 1.670433,-2.739512 1.202714,-1.269529 -0.400905,-5.946749 -2.071338,-2.071338 -3.474503,-1.804069 -1.403167,5.278572 -0.200451,5.144939 -0.734992,7.283096 -0.334086,14.232101 z"
       id="path968"
       inkscape:connector-curvature="0" />
    <path
       style="fill:#ffffff;fill-opacity:1;stroke:none;stroke-width:0.26458332px;stroke-linecap:butt;stroke-linejoin:miter;stroke-opacity:1"
       d="m 76.572718,75.767646 0.334089,-5.144937 0.534538,-4.810852 1.202713,-3.340867 1.202712,-1.202714 1.336349,3.608139 3.541321,3.207234 0.801807,1.135896 0.551243,1.486685 -0.601356,1.1526 -1.169304,1.069078 -7.650589,3.324166 z"
       id="path970"
       inkscape:connector-curvature="0" />
    <path
       style="fill:#ffffff;fill-opacity:1;stroke:none;stroke-width:0.26458332px;stroke-linecap:butt;stroke-linejoin:miter;stroke-opacity:1"
       d="m 134.40316,69.653856 -0.33409,-1.1526 0.3675,-1.23612 1.93771,-1.353052 2.30519,-2.288495 0.61807,-0.952148 0.55365,-1.29235 0.66146,2.173362 0.75595,4.582961 -0.14174,3.96875 -0.0472,1.13393 -5.33891,-1.889881 z"
       id="path974"
       inkscape:connector-curvature="0" />
    <path
       style="fill:#ffffff;fill-opacity:1;stroke:none;stroke-width:0.26458332px;stroke-linecap:butt;stroke-linejoin:miter;stroke-opacity:1"
       d="m 142.35443,73.763126 1.77066,0.902036 5.47903,2.939962 0.93544,0.768401 -0.20045,-7.683998 -1.1359,-12.628485 -1.40316,-6.38106 -1.5368,-4.176088 -2.87315,2.939966 -2.97337,1.804069 -0.0668,4.409948 v 0.968851 l 0.56795,1.536801 1.5368,3.507912 0.26727,4.543581 -0.13364,3.140419 z"
       id="path976"
       inkscape:connector-curvature="0" />
    <path
       style="fill:#ffffff;fill-opacity:1;stroke:none;stroke-width:0.26458332px;stroke-linecap:butt;stroke-linejoin:miter;stroke-opacity:1"
       d="m 81.049483,26.155742 -2.438833,0.03341 -3.207235,0.935444 -3.140419,1.971114 -1.937702,2.806329 -1.169305,3.107007 -0.200451,3.006784 0.100224,2.839738 1.469983,3.841999 1.77066,2.104747 1.937706,1.737251 2.973374,1.403165 1.336347,1.737254 0.267268,-2.071341 -0.133633,-5.178345 0.200451,-3.34087 -0.03341,-4.242903 1.336347,-4.543581 0.835218,-2.739515 z"
       id="path994"
       inkscape:connector-curvature="0" />
    <path
       style="fill:#ffffff;fill-opacity:1;stroke:#000000;stroke-width:0.26458332px;stroke-linecap:butt;stroke-linejoin:miter;stroke-opacity:1"
       d="m 74.401155,29.396385 4.109268,-0.467722 1.570209,0.100227 0.200451,1.336347 -0.334086,2.288495 -0.835218,3.023486 c -0.200548,1.722464 -0.339994,3.12786 -0.283973,4.727331 l -0.41761,2.522355 c -0.285896,1.001275 -0.632984,1.136217 -1.536798,1.503392 l -2.238383,-0.300678 -1.971114,-1.570209 -0.567947,-2.104747 -0.06682,-6.046973 0.601355,-3.808592 z"
       id="path992"
       inkscape:connector-curvature="0"
       sodipodi:nodetypes="ccccccccccccccc" />
    <circle
       style="fill:#ffffff;fill-opacity:1;fill-rule:evenodd;stroke:#000000;stroke-width:0.26458332;stroke-opacity:1"
       id="path988"
       cx="75.169556"
       cy="33.639286"
       r="2.0713389" />
    <circle
       style="fill:#ffffff;fill-opacity:1;fill-rule:evenodd;stroke:#000000;stroke-width:0.26458332;stroke-opacity:1"
       id="path990"
       cx="75.202965"
       cy="39.819893"
       r="2.0045214" />
    <path
       style="fill:#ffffff;fill-opacity:1;stroke:none;stroke-width:0.26458332px;stroke-linecap:butt;stroke-linejoin:miter;stroke-opacity:1"
       d="m 82.118561,49.140922 0.03341,1.23612 -0.167044,0.668173 -1.169303,0.334087 -0.835218,-0.267269 -0.601355,-1.069078 -0.367496,-2.405425 0.167042,-5.946748 v -4.075859 l 0.10858,-1.119193 0.993907,-3.374276 0.558575,-1.885963 0.448845,-1.204799 0.07087,3.70889 0.307107,5.929503 0.165365,5.669642 z"
       id="path1004"
       inkscape:connector-curvature="0" />
    <path
       style="display:inline;opacity:1;fill:#ffffff;fill-opacity:1;stroke:none;stroke-width:0.26458332px;stroke-linecap:butt;stroke-linejoin:miter;stroke-opacity:1"
       d="m 136.851,49.378348 1.7009,0.519716 1.41741,0.330729 0.11811,-2.220611 -0.61421,-5.811382 -0.59058,-4.51209 -0.66146,-6.142115 -0.56697,-2.338726 -0.33073,5.858629 -0.44884,9.614771 z"
       id="path980"
       inkscape:connector-curvature="0" />
    <path
       style="fill:#ffffff;fill-opacity:1;stroke:none;stroke-width:0.26458332px;stroke-linecap:butt;stroke-linejoin:miter;stroke-opacity:1"
       d="m 137.71062,24.719168 4.4793,-0.0038 1.84263,0.377977 1.86626,0.968564 1.63002,1.677269 1.32292,2.622211 0.85044,2.622209 0.16537,3.23642 0.0472,2.763952 -0.40159,2.504093 -1.22843,2.740326 -1.77176,2.173365 -1.67727,1.511903 -2.12612,1.724517 -1.53552,1.110305 -0.44885,0.02363 -0.16537,-3.779761 -0.51971,-4.063243 -1.77177,-13.654392 -0.63783,-1.133927 -0.35435,-1.559153 z"
       id="path1017"
       inkscape:connector-curvature="0" />
    <path
       style="display:inline;opacity:1;fill:#ffffff;fill-opacity:1;stroke:#000000;stroke-width:0.26458332px;stroke-linecap:butt;stroke-linejoin:miter;stroke-opacity:1"
       d="m 138.71726,27.266741 2.05525,-0.212611 3.04743,0.236233 1.63002,0.472472 0.42523,0.992187 0.16536,2.763951 -0.0472,5.905876 -0.63783,3.756139 -1.41741,0.732329 -1.01582,0.401601 h -2.33872 l -0.54334,-0.188989 -0.8977,-7.157924 -0.59058,-6.472843 z"
       id="path1010"
       inkscape:connector-curvature="0" />
    <circle
       style="display:inline;opacity:1;fill:#ffffff;fill-opacity:1;fill-rule:evenodd;stroke:#000000;stroke-width:0.26458332;stroke-opacity:1"
       id="path1006"
       cx="142.40253"
       cy="30.810266"
       r="1.8190104" />
    <circle
       style="display:inline;opacity:1;fill:#ffffff;fill-rule:evenodd;stroke:#000000;stroke-width:0.26458332;stroke-opacity:1"
       id="path1008"
       cx="142.5679"
       cy="36.834259"
       r="1.8190104" />
  </g>
</svg>
